<?xml version="1.0" standalone="no"?>
<!DOCTYPE svg PUBLIC "-//W3C//DTD SVG 20010904//EN"
 "http://www.w3.org/TR/2001/REC-SVG-20010904/DTD/svg10.dtd">
<svg version="1.0" xmlns="http://www.w3.org/2000/svg"
 width="177.000000pt" height="224.000000pt" viewBox="0 0 177.000000 224.000000"
 preserveAspectRatio="xMidYMid meet">

<g transform="translate(0.000000,224.000000) scale(0.100000,-0.100000)"
fill="#000000" stroke="none">
<path d="M1050 2047 c-47 -52 -88 -93 -91 -91 -3 2 -29 42 -58 89 -29 47 -56
85 -60 85 -4 0 -22 -45 -40 -100 -22 -68 -36 -98 -44 -94 -7 4 -53 36 -104 71
-50 34 -94 63 -96 63 -2 0 2 -39 10 -87 7 -47 12 -90 11 -95 -2 -5 -19 3 -38
17 -19 15 -51 35 -72 46 l-36 19 33 -56 c18 -30 41 -77 51 -105 10 -27 21 -49
24 -49 3 0 42 15 85 34 183 77 363 93 571 50 l31 -6 7 59 c4 32 15 82 25 111
10 28 15 52 11 52 -5 0 -33 -27 -63 -60 l-55 -59 -7 87 c-3 48 -7 93 -8 101
-1 7 -40 -30 -87 -82z"/>
<path d="M800 1796 c-66 -15 -146 -42 -179 -60 l-25 -14 31 -16 c17 -8 42 -30
54 -48 21 -29 21 -31 3 -24 -62 25 -85 27 -122 9 -63 -31 -78 -116 -37 -218 6
-16 1 -14 -23 9 -41 38 -56 85 -49 153 l6 53 -29 -20 c-45 -32 -151 -153 -187
-212 -50 -83 -50 -84 -4 -92 23 -3 41 -9 41 -12 0 -3 -11 -20 -24 -37 -59 -78
-146 -301 -146 -373 0 -23 0 -23 47 -8 27 8 60 17 74 20 l26 6 -8 -49 c-11
-69 -11 -180 2 -268 12 -88 44 -201 60 -211 15 -9 139 116 197 198 26 37 50
67 54 68 3 0 12 -24 19 -52 18 -69 18 -243 0 -340 -10 -57 -11 -81 -3 -91 6
-7 42 -24 79 -37 59 -22 85 -25 193 -24 108 0 136 4 205 27 44 14 106 42 137
61 l57 34 12 -54 c7 -30 16 -54 20 -54 15 0 106 79 152 131 64 73 124 196 145
296 l16 83 37 -36 37 -36 22 96 c19 80 22 116 18 218 -4 108 -9 135 -40 226
-40 116 -131 278 -136 243 -5 -29 -16 -26 -45 11 -20 25 -23 35 -14 49 8 13 8
24 -1 43 -13 30 -28 32 -60 10 -21 -14 -25 -14 -57 6 -19 12 -35 19 -35 16 0
-15 57 -85 106 -130 l56 -51 -83 3 c-46 2 -95 -1 -108 -6 -22 -8 -31 -1 -87
57 -67 70 -73 84 -48 119 19 27 1 31 -35 6 -21 -15 -26 -14 -90 15 -65 30 -70
31 -109 17 -48 -17 -92 -45 -92 -58 0 -20 86 -48 151 -48 60 0 71 -3 105 -32
22 -18 51 -46 65 -63 l27 -30 -132 3 c-72 2 -148 8 -169 13 -46 12 -100 64
-113 110 -8 28 -15 35 -43 39 l-34 5 41 38 c23 20 45 37 50 37 4 0 14 4 22 10
12 7 12 12 -4 29 -17 19 -17 20 36 50 56 33 165 71 202 71 12 0 55 -21 96 -46
101 -62 97 -62 110 -15 l11 41 32 -16 c42 -22 123 -80 166 -118 18 -17 31 -24
28 -16 -3 8 -16 47 -27 85 -14 44 -32 79 -49 93 -29 26 -151 87 -194 98 l-28
6 7 -43 7 -44 -57 53 -58 52 -111 -1 c-62 -1 -137 -7 -167 -13z m513 -617 l57
-31 0 -56 0 -57 -55 -40 c-64 -47 -128 -80 -170 -89 -29 -6 -31 -4 -79 85
l-49 92 29 24 c33 27 180 103 198 103 7 0 38 -14 69 -31z m217 -11 c27 -77 20
-238 -10 -238 -6 0 -10 3 -10 8 0 4 -18 29 -40 56 -35 43 -40 54 -40 101 0 49
2 54 38 78 20 14 40 26 44 26 3 1 11 -14 18 -31z m-70 -292 c14 -30 19 -53 14
-73 -9 -38 -47 -103 -77 -131 l-24 -23 -7 61 c-4 33 -9 60 -12 60 -2 0 -21
-11 -42 -25 -20 -13 -51 -27 -67 -31 -31 -6 -37 2 -83 99 -2 4 4 7 13 7 23 0
130 57 151 81 12 14 31 19 65 19 46 0 48 -1 69 -44z"/>
</g>
</svg>
